<svg xmlns="http://www.w3.org/2000/svg" height="1200" width="1600" version="1.1" xmlns:xlink="http://www.w3.org/1999/xlink" xmlns:svgjs="http://svgjs.com/svgjs"><rect fill="#ffffff" width="1600" height="1200"></rect><g><path d="M975.8 1011.3V653.4C975.8 631.1 993.9 612.9 1016.3 612.9H1285.8C1308.1 612.9 1326.3 631 1326.3 653.4V1011.3C1326.3 1033.6 1308.2 1051.8 1285.8 1051.8H1016.3C993.9 1051.7 975.8 1033.6 975.8 1011.3Z" fill="#ffc930" opacity="1" stroke-width="4" stroke="#000000"></path></g><g><path d="M1225.3 452.7V610.9" stroke="#000000" stroke-width="4" stroke-linecap="round" stroke-linejoin="round" opacity="1" fill="none"></path><path d="M1225.8 593.4C1232.48 593.4 1237.9 587.98 1237.9 581.3 1237.9 574.62 1232.48 569.2 1225.8 569.2 1219.12 569.2 1213.7 574.62 1213.7 581.3 1213.7 587.98 1219.12 593.4 1225.8 593.4Z" fill="#ffc930" opacity="1" stroke-width="4" stroke="#000000"></path></g><g><path d="M708.9 872.9H1002" stroke="#000000" stroke-width="4" stroke-linecap="round" stroke-linejoin="round" opacity="1" fill="none"></path><path d="M977.3 909.8C997.96 909.8 1014.7 893.05 1014.7 872.4 1014.7 851.75 997.96 835 977.3 835 956.65 835 939.9 851.75 939.9 872.4 939.9 893.05 956.65 909.8 977.3 909.8Z" fill="#2e0b75" opacity="1" stroke-width="4" stroke="#000000"></path></g><g><path d="M792.1 872.9V951.1C792.1 966.8 804.8 979.5 820.5 979.5H975" stroke="#000000" stroke-width="4" stroke-linecap="round" stroke-linejoin="round" opacity="1" fill="none"></path><path d="M792.6 884.5C799.28 884.5 804.7 879.08 804.7 872.4 804.7 865.72 799.28 860.3 792.6 860.3 785.92 860.3 780.5 865.72 780.5 872.4 780.5 879.08 785.92 884.5 792.6 884.5Z" fill="#ffc930" opacity="1" stroke-width="4" stroke="#000000"></path></g><g><path d="M1185 434.2V533.7C1185 549.4 1172.3 562.1 1156.6 562.1H1002" stroke="#000000" stroke-width="4" stroke-linecap="round" stroke-linejoin="round" opacity="1" fill="none"></path></g><g><path d="M619.1 877.8V977.3C619.1 993 606.4 1005.7 590.7 1005.7H436.1" stroke="#000000" stroke-width="4" stroke-linecap="round" stroke-linejoin="round" opacity="1" fill="none"></path></g><g><path d="M355.5 632.2V731.7C355.5 747.4 368.2 760.1 383.9 760.1H538.4" stroke="#000000" stroke-width="4" stroke-linecap="round" stroke-linejoin="round" opacity="1" fill="none"></path></g><g><path d="M452.4 632.2H666.1C688.4 632.2 706.6 650.3 706.6 672.7V886.4C706.6 908.7 688.5 926.9 666.1 926.9H452.4C430.1 926.9 411.9 908.8 411.9 886.4V672.6C411.9 650.3 430 632.2 452.4 632.2Z" fill="#ffc930" opacity="1" stroke-width="4" stroke="#000000"></path></g><g><path d="M1189.78 743.26H1185.81L1154.5 767.99 1117.98 743.26H1082.93C1069.55 743.26 1058.66 754.15 1058.66 767.53V903.87C1058.66 917.25 1069.55 928.14 1082.93 928.14H1100.97L1154.62 894.23 1202.71 928.14H1219.27C1232.65 928.14 1243.54 917.25 1243.54 903.87V797.02C1243.54 791.92 1241.5 787.04 1237.87 783.41L1203.39 748.93C1199.76 745.3 1194.88 743.26 1189.78 743.26Z" fill="#ffffff" opacity="1" stroke-width="4" stroke="#000000"></path><path d="M1107.77 846.7H1196.02C1199.76 846.7 1202.71 849.77 1202.71 853.4V928.14H1100.97V853.51C1101.08 849.77 1104.03 846.7 1107.77 846.7Z" fill="#fa4e0a" opacity="1" stroke-width="4" stroke="#000000"></path><path d="M1117.98 743.26H1185.81V789.88C1185.81 793.17 1183.2 795.78 1179.91 795.78H1123.88C1120.59 795.78 1117.98 793.17 1117.98 789.88V743.26Z" fill="#fa4e0a" opacity="1" stroke-width="4" stroke="#000000"></path></g><g><path d="M619.9 766.3C618.1 766.3 616.3 766.4 614.6 766.7 607 736.1 576.1 717.5 545.5 725.1 525 730.2 509 746.2 503.9 766.7 484.5 763.8 466.3 777.1 463.4 796.5 460.5 815.9 473.8 834.1 493.2 837 495 837.3 496.7 837.4 498.5 837.4H619.9C639.6 837.4 655.5 821.4 655.5 801.8 655.4 782.3 639.5 766.4 619.9 766.3Z" fill="#ffffff" opacity="1" stroke-width="4" stroke="#000000"></path></g><g><path d="M1293.7 685.2H1401.5C1423.8 685.2 1423.1 703.6 1423.1 726L1442 810.6V833.5C1442 855.8 1423.9 874 1401.5 874H1293.7C1271.4 874 1253.2 855.9 1253.2 833.5V810.6L1263.6 723.1C1263.7 700.8 1271.4 685.2 1293.7 685.2Z" fill="#2e0b75" opacity="1" stroke-width="4" stroke="#000000"></path><path d="M1293.7 662.3H1401.5C1423.8 662.3 1442 680.4 1442 702.8V810.6C1442 832.9 1423.9 851.1 1401.5 851.1H1293.7C1271.4 851.1 1253.2 833 1253.2 810.6V702.7C1253.3 680.4 1271.4 662.3 1293.7 662.3Z" fill="#0097f5" opacity="1" stroke-width="4" stroke="#000000"></path></g><g><path d="M581.7 498.2H696.3" stroke="#000000" stroke-width="4" stroke-linecap="round" stroke-linejoin="round" opacity="1" fill="none"></path></g><g><path d="M1286.31 747.33C1308.45 747.33 1300.49 802.94 1319.55 802.94 1334.01 802.94 1328.87 762.43 1347.92 762.43 1384.26 762.43 1371.84 716.77 1409.54 716.77" stroke="#000000" stroke-width="4" stroke-linecap="round" opacity="1" fill="none"></path><path d="M1286.08 754.88C1290.25 754.88 1293.63 751.5 1293.63 747.33 1293.63 743.16 1290.25 739.78 1286.08 739.78 1281.91 739.78 1278.53 743.16 1278.53 747.33 1278.53 751.5 1281.91 754.88 1286.08 754.88Z" fill="#ffffff" opacity="1" stroke-width="4" stroke="#000000"></path><path d="M1347.88 769.93C1352.05 769.93 1355.43 766.55 1355.43 762.38 1355.43 758.21 1352.05 754.83 1347.88 754.83 1343.71 754.83 1340.33 758.21 1340.33 762.38 1340.33 766.55 1343.71 769.93 1347.88 769.93Z" fill="#ffffff" opacity="1" stroke-width="4" stroke="#000000"></path><path d="M1409.49 724.27C1413.66 724.27 1417.04 720.9 1417.04 716.73 1417.04 712.56 1413.66 709.18 1409.49 709.18 1405.32 709.18 1401.95 712.56 1401.95 716.73 1401.95 720.9 1405.32 724.27 1409.49 724.27Z" fill="#ffffff" opacity="1" stroke-width="4" stroke="#000000"></path></g><g><path d="M706.68 226.48L764.98 226.48C771.08 226.48 775.99 231.39 775.99 237.49L775.99 410.33C775.99 416.43 771.08 421.34 764.98 421.34L673.23 421.34" stroke="#000000" stroke-width="4" stroke-linecap="round" stroke-linejoin="round" opacity="1" fill="none"></path><path d="M698.53 226.26C698.53 235.32 705.87 242.66 714.92 242.66 723.98 242.66 731.32 235.32 731.32 226.26 731.32 217.21 723.98 209.87 714.92 209.87 705.87 209.87 698.53 217.21 698.53 226.26Z" fill="#2e0b75" opacity="1" stroke-width="4" stroke="#000000"></path><path d="M770.46 373.07C770.46 376 772.84 378.38 775.77 378.38 778.7 378.38 781.07 376 781.07 373.07 781.07 370.14 778.7 367.77 775.77 367.77 772.84 367.77 770.46 370.14 770.46 373.07Z" fill="#2e0b75" opacity="1" stroke-width="4" stroke="#000000"></path></g><g><path d="M291.8 927.9H244.6C232.8 927.9 223.2 918.3 223.2 906.5V827.8L239.6 817.6 206.8 797.2 239.6 776.8 206.8 756.4 223.2 746.2V671" stroke="#000000" stroke-width="4" stroke-linecap="round" stroke-linejoin="round" opacity="1" fill="none"></path><path d="M270.9 939.9C277.58 939.9 283 934.48 283 927.8 283 921.12 277.58 915.7 270.9 915.7 264.22 915.7 258.8 921.12 258.8 927.8 258.8 934.48 264.22 939.9 270.9 939.9Z" fill="#2e0b75" opacity="1" stroke-width="4" stroke="#000000"></path></g><g><path d="M707 424.4H1005.6C1027.9 424.4 1016.1 443.7 1016.1 466.1L1046.1 739.2V763.5C1046.1 785.8 1028 804 1005.6 804H707C684.7 804 666.5 785.9 666.5 763.5V743.1L683.8 465.4C683.8 443 684.6 424.4 707 424.4Z" fill="#2e0b75" opacity="1" stroke-width="4" stroke="#000000"></path><path d="M707 400.1H1005.6C1027.9 400.1 1046.1 418.2 1046.1 440.6V739.2C1046.1 761.5 1028 779.7 1005.6 779.7H707C684.7 779.7 666.5 761.6 666.5 739.2V440.5C666.5 418.2 684.6 400.1 707 400.1Z" fill="#ffffff" opacity="1" stroke-width="4" stroke="#000000"></path></g><g><path d="M292.97 666.13C276.14 590.65 290.83 499.83 321.55 496.18 350.7 492.67 360.37 565.8 351.56 584.85 344.9 599.24 332.15 584.56 344.97 554.05 356.72 526.19 391.09 469.11 423.32 470.54 455.55 471.97 427.69 529.91 427.69 529.91L554.46 483" stroke="#000000" stroke-width="4" stroke-linecap="round" stroke-linejoin="round" opacity="1" fill="none"></path></g><g><path d="M1112.7 294H990.3L976.3 271.6 948.5 316.5 920.6 271.6 892.7 316.5 878.7 294H775.8" stroke="#000000" stroke-width="4" stroke-linecap="round" stroke-linejoin="round" opacity="1" fill="none"></path></g><g><path d="M1190.11 479.43C1211.84 479.43 1229.47 461.8 1229.47 440.08 1229.47 418.35 1211.84 400.72 1190.11 400.72 1168.39 400.72 1150.76 418.35 1150.76 440.08 1150.76 461.8 1168.39 479.43 1190.11 479.43Z" fill="#fa4e0a" opacity="1" stroke-width="4" stroke="#000000"></path></g><g><path d="M206.7 357.5H564.6C586.9 357.5 539.6 378.7 539.6 401.1L605.1 643.2V667.5C605.1 689.8 587 708 564.6 708H206.7C184.4 708 166.2 689.9 166.2 667.5V647.6L199.7 401.1C199.7 378.8 184.4 357.5 206.7 357.5Z" fill="#2e0b75" opacity="1" stroke-width="4" stroke="#000000"></path><path d="M206.7 333.2H564.6C586.9 333.2 605.1 351.3 605.1 373.7V643.2C605.1 665.5 587 683.7 564.6 683.7H206.7C184.4 683.7 166.2 665.6 166.2 643.2V373.7C166.2 351.3 184.4 333.2 206.7 333.2Z" fill="#fa4e0a" opacity="1" stroke-width="4" stroke="#000000"></path></g><g><path d="M1139.6 218.7H1371.3C1393.6 218.7 1382.1 235.8 1382.1 258.2L1411.8 466.6V490.9C1411.8 513.2 1393.7 531.4 1371.3 531.4H1139.6C1117.3 531.4 1099.1 513.3 1099.1 490.9V466.6L1142.5 271.7C1142.5 249.3 1117.2 218.7 1139.6 218.7Z" fill="#2e0b75" opacity="1" stroke-width="4" stroke="#000000"></path><path d="M1139.1 194.4H1370.8C1393.1 194.4 1411.3 212.5 1411.3 234.9V466.6C1411.3 488.9 1393.2 507.1 1370.8 507.1H1139.1C1116.8 507.1 1098.6 489 1098.6 466.6V234.8C1098.7 212.5 1116.8 194.4 1139.1 194.4Z" fill="#fa4e0a" opacity="1" stroke-width="4" stroke="#000000"></path></g><g><path d="M494.03 424.3C427.19 424.3 449.21 505.3 384.72 505.3 350.91 505.3 363.49 564.28 334.39 564.28 300.58 564.28 314.73 478.56 275.41 478.56" stroke="#000000" stroke-width="4" opacity="1" fill="none"></path><path d="M494.03 429.8V633.48" stroke="#000000" stroke-width="4" opacity="1" fill="none"></path><path d="M384.57 508.44V633.48" stroke="#000000" stroke-width="4" opacity="1" fill="none"></path><path d="M275.02 486.42V633.48" stroke="#000000" stroke-width="4" opacity="1" fill="none"></path><path d="M266.76 632.7H501.9" stroke="#000000" stroke-width="4" stroke-linecap="round" stroke-linejoin="round" opacity="1" fill="none"></path><path d="M275.02 491.93C282.41 491.93 288.39 485.94 288.39 478.56 288.39 471.18 282.41 465.19 275.02 465.19 267.64 465.19 261.65 471.18 261.65 478.56 261.65 485.94 267.64 491.93 275.02 491.93Z" fill="#ffffff" opacity="1" stroke-width="4" stroke="#000000"></path><path d="M384.72 518.67C392.11 518.67 398.09 512.68 398.09 505.3 398.09 497.91 392.11 491.93 384.72 491.93 377.34 491.93 371.36 497.91 371.36 505.3 371.36 512.68 377.34 518.67 384.72 518.67Z" fill="#ffffff" opacity="1" stroke-width="4" stroke="#000000"></path><path d="M494.03 437.67C501.42 437.67 507.4 431.68 507.4 424.3 507.4 416.91 501.42 410.93 494.03 410.93 486.65 410.93 480.67 416.91 480.67 424.3 480.67 431.68 486.65 437.67 494.03 437.67Z" fill="#ffffff" opacity="1" stroke-width="4" stroke="#000000"></path></g><g><path d="M1254.96 249.14C1312.74 249.14 1359.46 295.86 1359.46 353.64 1359.46 411.42 1309.56 458.14 1251.92 458.14 1194.28 458.14 1150.46 411.42 1150.46 353.64 1150.46 295.86 1197.18 249.14 1254.96 249.14Z" fill="#ffffff" opacity="1" stroke-width="4" stroke="#000000"></path><path d="M1166.08 298.62H1343.84" stroke="#000000" stroke-width="4" stroke-linecap="round" stroke-linejoin="round" opacity="1" fill="none"></path><path d="M1150.46 353.64H1359.46" stroke="#000000" stroke-width="4" stroke-linecap="round" stroke-linejoin="round" opacity="1" fill="none"></path><path d="M1166.22 408.93L1343.84 408.51" stroke="#000000" stroke-width="4" stroke-linecap="round" stroke-linejoin="round" opacity="1" fill="none"></path><path d="M1251.92 458.14L1254.96 249.14" stroke="#000000" stroke-width="4" stroke-linecap="round" stroke-linejoin="round" opacity="1" fill="none"></path><path d="M1254.96 249.14C1254.96 249.14 1120.05 342.03 1251.92 458.14" stroke="#000000" stroke-width="4" stroke-linecap="round" stroke-linejoin="round" opacity="1" fill="none"></path><path d="M1255.1 249.14C1255.1 249.14 1385.17 339.26 1251.92 458.14" stroke="#000000" stroke-width="4" stroke-linecap="round" stroke-linejoin="round" opacity="1" fill="none"></path></g><g><path d="M315.25 295.32V194.08C315.25 183.5 323.78 174.98 334.36 174.98H634.5C645.08 174.98 653.6 183.5 653.6 194.08V353.4" stroke="#000000" stroke-width="4" stroke-linecap="round" stroke-linejoin="round" opacity="1" fill="none"></path><path d="M314.87 309.48C330.6 309.48 343.34 296.74 343.34 281.01 343.34 265.29 330.6 252.54 314.87 252.54 299.15 252.54 286.4 265.29 286.4 281.01 286.4 296.74 299.15 309.48 314.87 309.48Z" fill="#2e0b75" opacity="1" stroke-width="4" stroke="#000000"></path><path d="M569.8 184.57C574.88 184.57 579.01 180.44 579.01 175.36 579.01 170.27 574.88 166.15 569.8 166.15 564.71 166.15 560.59 170.27 560.59 175.36 560.59 180.44 564.71 184.57 569.8 184.57Z" fill="#2e0b75" opacity="1" stroke-width="4" stroke="#000000"></path></g><g><path d="M779.34 581.93H714.84V719.79H779.34V581.93Z" fill="#61ccff" opacity="1" stroke-width="4" stroke="#000000"></path><path d="M883.4 466.09H818.9V719.79H883.4V466.09Z" fill="#ffc930" opacity="1" stroke-width="4" stroke="#000000"></path><path d="M987.46 510.21H922.96V719.79H987.46V510.21Z" fill="#fa4e0a" opacity="1" stroke-width="4" stroke="#000000"></path></g><g><path d="M453.3 137.9H625.8C648.1 137.9 622 162.9 622 185.3L666 325.4C666 347.7 657.5 391.3 635.1 391.3H436.4C414.1 391.3 412.8 353.1 412.8 330.7L438.7 183.1C438.7 161 430.9 137.9 453.3 137.9Z" fill="#2e0b75" opacity="1" stroke-width="4" stroke="#000000"></path><path d="M453.3 113.6H625.8C648.1 113.6 666.3 131.7 666.3 154.1V326.6C666.3 348.9 648.2 367.1 625.8 367.1H453.3C431 367.1 412.8 349 412.8 326.6V154.1C412.8 131.7 430.9 113.6 453.3 113.6Z" fill="#0097f5" opacity="1" stroke-width="4" stroke="#000000"></path></g><g><path d="M601.87 233.3L477.35 187.27C477.19 187.27 477.03 187.27 477.19 187.43L519.75 313.21C519.75 313.37 519.91 313.37 520.06 313.21L535.98 276.8C535.98 276.64 536.14 276.64 536.3 276.8L565.14 306.12H565.3L593.83 278.38V278.22L565.14 248.74C565.14 248.59 565.14 248.59 565.14 248.43L601.71 233.61C601.87 233.61 601.87 233.3 601.87 233.3Z" fill="#ffffff" opacity="1" stroke-width="4" stroke="#000000"></path></g><g><path d="M334.8 835.4H507.3C529.6 835.4 533.2 848.7 533.2 871.1L547.8 1024.2V1048.4C547.8 1070.7 529.7 1088.9 507.3 1088.9H334.8C312.5 1088.9 294.3 1070.8 294.3 1048.4V1024.2L319.1 876.6C319.1 854.2 312.4 835.4 334.8 835.4Z" fill="#2e0b75" opacity="1" stroke-width="4" stroke="#000000"></path><path d="M334.8 811.2H507.3C529.6 811.2 547.8 829.3 547.8 851.7V1024.2C547.8 1046.5 529.7 1064.7 507.3 1064.7H334.8C312.5 1064.7 294.3 1046.6 294.3 1024.2V851.6C294.3 829.3 312.4 811.2 334.8 811.2Z" fill="#0097f5" opacity="1" stroke-width="4" stroke="#000000"></path></g><g><path d="M378.21 1006.91H463.44C469.53 1006.91 474.5 1001.95 474.5 995.85V883.39C474.5 877.29 469.53 872.33 463.44 872.33H414.89C414.16 872.33 413.51 872.73 413.26 873.38L399.19 906.89 368.62 918.27C367.72 918.6 367.15 919.49 367.15 920.47V995.93C367.15 1002.03 372.11 1006.91 378.21 1006.91Z" fill="#ffffff" opacity="1" stroke-width="4" stroke="#000000"></path><path d="M368.05 918.6C367.89 918.76 368.05 919.17 368.37 919.17L402.85 918.92C408.95 918.92 413.91 913.96 413.91 907.86L413.59 872.9 368.05 918.6Z" fill="#61ccff" opacity="1" stroke-width="4" stroke="#000000"></path></g></svg>