<svg xmlns="http://www.w3.org/2000/svg" height="1200" width="1600" version="1.1" xmlns:xlink="http://www.w3.org/1999/xlink" xmlns:svgjs="http://svgjs.com/svgjs"><rect fill="#ede9f3" width="1600" height="1200"></rect><g><path d="M1005.65 301.05H1384.95C1402.25 301.05 1416.25 315.05 1416.25 332.35V892.75C1416.25 910.05 1402.25 924.05 1384.95 924.05H1005.65C988.35 924.05 974.35 910.05 974.35 892.75V332.35C974.35 315.05 988.35 301.05 1005.65 301.05Z" fill="#ff309a" opacity="1" stroke-width="4" stroke="#000000"></path><path d="M1151.15 301.05V924.05" stroke="#000000" stroke-width="4" stroke-linecap="round" stroke-linejoin="round" opacity="1" fill="none"></path><path d="M1062.75 301.05V924.05" stroke="#000000" stroke-width="4" stroke-linecap="round" stroke-linejoin="round" opacity="1" fill="none"></path><path d="M1239.45 301.05V924.05" stroke="#000000" stroke-width="4" stroke-linecap="round" stroke-linejoin="round" opacity="1" fill="none"></path><path d="M1327.85 301.05V924.05" stroke="#000000" stroke-width="4" stroke-linecap="round" stroke-linejoin="round" opacity="1" fill="none"></path><path d="M974.35 746.25H1416.25" stroke="#000000" stroke-width="4" stroke-linecap="round" stroke-linejoin="round" opacity="1" fill="none"></path><path d="M974.35 835.25L1416.25 835.65" stroke="#000000" stroke-width="4" stroke-linecap="round" stroke-linejoin="round" opacity="1" fill="none"></path><path d="M974.35 567.95L1416.25 568.15" stroke="#000000" stroke-width="4" stroke-linecap="round" stroke-linejoin="round" opacity="1" fill="none"></path><path d="M974.65 657.25H1416.25" stroke="#000000" stroke-width="4" stroke-linecap="round" stroke-linejoin="round" opacity="1" fill="none"></path><path d="M974.35 479.05L1416.25 479.15" stroke="#000000" stroke-width="4" stroke-linecap="round" stroke-linejoin="round" opacity="1" fill="none"></path><path d="M974.35 390.05H1416.25" stroke="#000000" stroke-width="4" stroke-linecap="round" stroke-linejoin="round" opacity="1" fill="none"></path></g><g><path d="M957.13 195.66H1279.43C1296.73 195.66 1310.73 209.66 1310.73 226.96V787.36C1310.73 804.66 1296.73 818.66 1279.43 818.66H957.13C939.83 818.66 925.83 804.66 925.83 787.36V226.96C925.83 209.66 939.93 195.66 957.13 195.66Z" fill="#ffc432" opacity="1" stroke-width="4" stroke="#000000"></path><path d="M1123.43 184.26L1147.33 145.66H1213.53C1230.83 145.66 1244.83 159.66 1244.83 176.96V282.66L1217.43 317.66 1123.53 291.06 1123.43 184.26Z" fill="#23211f" opacity="1" stroke-width="4" stroke="#000000"></path><path d="M1154.43 174.36V262.86L1102.73 634.26 920.93 602.66 888.13 400.66 879.33 195.66 974.93 171.96 1154.43 174.36Z" fill="#ffb8a0" opacity="1" stroke-width="4" stroke="#000000"></path><path d="M879.33 463.06L859.93 507.16V737.36C859.93 754.66 873.93 768.66 891.23 768.66H920.93L988.73 743.66 981.93 424.66 879.33 463.06Z" fill="#ffc432" opacity="1" stroke-width="4" stroke="#000000"></path><path d="M891.23 145.66C873.93 145.66 859.93 159.66 859.93 176.96V507.16C886.93 470.66 960.93 496.66 979.93 435.66 1001.23 367.26 849.73 300.26 897.93 233.66 939.93 175.66 1045.93 234.66 1111.93 217.66 1177.93 200.66 1147.33 145.66 1147.33 145.66H891.23Z" fill="#ffffff" opacity="1" stroke-width="4" stroke="#000000"></path><path d="M954.13 611.16V760.46H1039.93L972.03 615.66 954.13 611.16Z" fill="#ffd561" opacity="1" stroke-width="4" stroke="#000000"></path><path d="M1024.93 311.66V602.66H1187.63V423.66L1024.93 311.66Z" fill="#ffd561" opacity="1" stroke-width="4" stroke="#000000"></path><path d="M920.93 768.66H1213.63C1230.93 768.66 1244.93 754.66 1244.93 737.36L1244.83 282.76C1244.83 282.76 1062.93 227.66 1031.93 284.66 984.63 371.66 1189.53 470.36 1155.93 542.66 1129.93 598.66 985.83 541.06 958.93 592.66 934.93 638.66 1009.73 689.86 1002.93 721.66 996.93 749.66 930.93 737.66 920.93 768.66Z" fill="#ffffff" opacity="1" stroke-width="4" stroke="#000000"></path><path d="M1093.93 448.66C1107.18 448.66 1117.93 437.91 1117.93 424.66 1117.93 411.41 1107.18 400.66 1093.93 400.66 1080.68 400.66 1069.93 411.41 1069.93 424.66 1069.93 437.91 1080.68 448.66 1093.93 448.66Z" fill="#23211f" opacity="1" stroke-width="4" stroke="#000000"></path></g><g><path d="M482 968H625.4L649.4 940.8H884.2L795 968 858.4 1020.3 795.5 1067H482V968Z" fill="#cecece" opacity="1" stroke-width="4" stroke="#000000"></path><path d="M794.9 950.6L908.2 954.7V1067H795.5L794.9 950.6Z" fill="#23211f" opacity="1" stroke-width="4" stroke="#000000"></path><path d="M625.4 869H768.8L798.3 835.2 1015.4 832.7 938.9 869 995.3 927.2 938.9 968H625.4V869Z" fill="#cecece" opacity="1" stroke-width="4" stroke="#000000"></path><path d="M938.9 855.9L1051.7 853.9 1051.6 968H938.9V855.9Z" fill="#23211f" opacity="1" stroke-width="4" stroke="#000000"></path><path d="M768.8 770H1082.3L1161.7 818 1082.3 869H1035.6 1022 783.2 768.8V770Z" fill="#cecece" opacity="1" stroke-width="4" stroke="#000000"></path><path d="M1195 770H1082.3V869H1195V770Z" fill="#23211f" opacity="1" stroke-width="4" stroke="#000000"></path><path d="M908 968H625.4" stroke="#000000" stroke-width="4" stroke-linecap="round" stroke-linejoin="round" opacity="1" fill="none"></path><path d="M1052 869H768.4" stroke="#000000" stroke-width="4" stroke-linecap="round" stroke-linejoin="round" opacity="1" fill="none"></path><path d="M1195 770H860" stroke="#000000" stroke-width="4" stroke-linecap="round" stroke-linejoin="round" opacity="1" fill="none"></path></g><g><path d="M211.55 279.14H474.65C508.66 279.14 514.15 299.42 514.15 333.59L536.42 567.09V604C536.42 638.01 508.81 665.77 474.65 665.77H211.55C177.54 665.77 149.78 638.17 149.78 604V567.09L187.61 341.98C187.61 307.81 177.39 279.14 211.55 279.14Z" fill="#23211f" opacity="1" stroke-width="4" stroke="#000000"></path><path d="M211.55 242.23H474.65C508.66 242.23 536.42 269.83 536.42 304V567.09C536.42 601.1 508.81 628.86 474.65 628.86H211.55C177.54 628.86 149.78 601.26 149.78 567.09V303.85C149.78 269.83 177.39 242.23 211.55 242.23Z" fill="#ff309a" opacity="1" stroke-width="4" stroke="#000000"></path></g><g><path d="M240.16 302.92H446.78C462.72 302.92 475.63 315.84 475.63 331.78V538.32C475.63 554.26 462.72 567.18 446.78 567.18H240.16C224.22 567.18 211.31 554.26 211.31 538.32V331.71C211.31 315.84 224.22 302.92 240.16 302.92Z" stroke="#000000" stroke-width="4" stroke-linecap="round" stroke-linejoin="round" opacity="1" fill="none"></path><path d="M254.74 335.39V534.93" stroke="#000000" stroke-width="4" stroke-linecap="round" stroke-linejoin="round" opacity="1" fill="none"></path><path d="M443.46 523.68H243.34" stroke="#000000" stroke-width="4" stroke-linecap="round" stroke-linejoin="round" opacity="1" fill="none"></path><path d="M243.48 362.44H268.44C273.57 362.44 277.68 366.55 277.68 371.67 277.68 376.8 281.79 380.91 286.91 380.91H289.51C293.55 380.91 297.08 383.5 298.31 387.4L330.99 493.3C333.52 501.53 341.09 507.08 349.68 507.08 358.55 507.08 366.27 501.17 368.58 492.58L388.13 419.72C390.36 411.35 397.94 405.58 406.52 405.58H443.24" stroke="#000000" stroke-width="4" stroke-linecap="round" stroke-linejoin="round" opacity="1" fill="none"></path><path d="M431.99 393.82L443.46 405.29 431.99 416.76" stroke="#000000" stroke-width="4" stroke-linecap="round" stroke-linejoin="round" opacity="1" fill="none"></path><path d="M401.76 342.24L416.41 335.17 423.48 349.81" stroke="#000000" stroke-width="4" stroke-linecap="round" stroke-linejoin="round" opacity="1" fill="none"></path><path d="M243.48 443.67H275.44C282.44 443.67 289.08 446.92 293.33 452.47L296.43 456.51C302.35 464.16 311.51 468.63 321.25 468.63 335.54 468.63 348.02 458.96 351.62 445.11L366.56 387.11C368 381.63 372.9 377.81 378.53 377.81H391.88C398.66 377.81 404.57 373.4 406.59 366.91L416.26 335.31" stroke="#000000" stroke-width="4" stroke-linecap="round" stroke-linejoin="round" opacity="1" fill="none"></path></g><g><path d="M409.34 428.44H653.37C673.4 428.44 689.69 444.72 689.69 464.76V708.79C689.69 728.82 673.4 745.11 653.37 745.11H409.34C389.3 745.11 373.02 728.82 373.02 708.79V464.76C373.02 444.72 389.3 428.44 409.34 428.44Z" fill="#23211f" opacity="1" stroke-width="4" stroke="#000000"></path></g><g><path d="M533.87 681.44C585.86 681.44 628 639.3 628 587.31 628 535.32 585.86 493.18 533.87 493.18 481.89 493.18 439.74 535.32 439.74 587.31 439.74 639.3 481.89 681.44 533.87 681.44Z" fill="#ffffff" opacity="1" stroke-width="4" stroke="#000000"></path><path d="M533.87 650.06C568.53 650.06 596.63 621.97 596.63 587.31 596.63 552.65 568.53 524.56 533.87 524.56 499.21 524.56 471.12 552.65 471.12 587.31 471.12 621.97 499.21 650.06 533.87 650.06Z" stroke="#000000" stroke-width="4" opacity="1" fill="none"></path><path d="M520.63 610.8V562.21H538.69C546.81 562.21 553.31 567.79 553.31 574.76 553.31 581.65 546.81 587.31 538.69 587.31H520.63" stroke="#000000" stroke-width="4" stroke-linecap="round" stroke-linejoin="round" opacity="1" fill="none"></path><path d="M520.63 612.41V587.31H538.69C546.81 587.31 553.31 592.9 553.31 599.86 553.31 606.75 546.81 612.41 538.69 612.41H520.63" stroke="#000000" stroke-width="4" stroke-linecap="round" stroke-linejoin="round" opacity="1" fill="none"></path><path d="M534.33 561.52V555.4" stroke="#000000" stroke-width="4" stroke-linecap="round" stroke-linejoin="round" opacity="1" fill="none"></path><path d="M534.33 619.15V613.1" stroke="#000000" stroke-width="4" stroke-linecap="round" stroke-linejoin="round" opacity="1" fill="none"></path></g><g><path d="M607.28 870.93C616.66 845.61 639.69 813.52 660.11 784.97 663.34 780.39 666.67 775.91 669.8 771.43L670.01 771.22 575.51 748.4 571.23 750.49C567.07 756.32 563.84 761.32 560.5 766.64 551.44 781.22 543.31 796.33 536.33 812.06 532.89 819.88 529.66 827.59 526.54 835.82L533.93 893.54 607.28 870.93Z" fill="#a04a37" opacity="1" stroke-width="4" stroke="#000000"></path><path d="M647.08 803.21C651.46 797.06 655.84 790.91 660.11 784.87 663.34 780.28 664.8 778.31 668.03 773.83L669.9 771.12 585.4 746.53 585.2 746.94C602.91 756.53 618.85 769.14 632.29 784.04 642.08 794.98 646.56 803.1 646.67 803.21L646.88 803.52 647.08 803.21Z" fill="#a04a3700" opacity="0" stroke-width="4" stroke="#ffffff00"></path><path d="M790.66 321.64C793.89 322.68 797.33 323.2 800.77 323.09 810.14 323.09 818.06 319.86 821.92 314.45 828.27 305.8 828.38 295.69 822.54 277.35 823.17 276.52 827.65 270.79 826.81 267.14 826.29 265.06 823.17 263.5 817.65 262.77L817.12 261C814.21 252.24 811.5 244.53 808.27 238.18 803.68 229.22 790.35 231.51 779.93 227.55 773.05 224.84 773.47 224.53 766.18 224.63 752.11 224.63 746.59 222.03 737.31 230.36 722.52 243.7 724.6 266 727.21 279.65L729.6 281.42C730.85 289.44 728.46 315.49 731.69 331.53V331.74L789.72 334.97 791.81 328.72 790.66 321.64Z" fill="#a04a37" opacity="1" stroke-width="4" stroke="#000000"></path><path d="M790.66 321.64L782.64 318.41C782.32 318.3 782.12 318.2 781.8 318.2 781.18 318.2 780.55 318.51 780.24 319.03 779.93 319.55 779.82 320.18 780.14 320.8L785.45 332.89 791.81 328.72 790.66 321.64Z" fill="#a04a3700" opacity="0" stroke-width="4" stroke="#ffffff00"></path><path d="M797.33 876.66C797.64 868.64 798.58 861.97 799 859.05 800.97 845.09 803.37 828 806.5 807.06L786.49 636.19 717.41 778.51C715.64 786.43 712.93 800.19 711.89 807.37 709.29 824.36 707.93 841.45 707.72 858.64 707.72 864.47 707.62 870.41 707.83 876.45L741.59 936.26 797.33 876.66Z" fill="#a04a37" opacity="1" stroke-width="4" stroke="#000000"></path><path d="M793.79 751.11L787.01 646.3C786.8 643.59 783.16 642.86 782.01 645.25L717.52 778.31C717.41 778.51 717.31 778.72 717.31 778.93 716.89 780.81 716.48 782.99 716.06 785.39 715.23 789.35 714.39 793.83 713.66 797.79 713.45 798.73 713.87 799.66 714.6 800.29L735.54 817.48C736.69 818.42 738.36 818.21 739.29 817.17L793.37 753.09C793.68 752.47 793.89 751.74 793.79 751.11Z" fill="#a04a3700" opacity="0" stroke-width="4" stroke="#ffffff00"></path><path d="M842.34 952.41L842.86 951.37C840.88 948.55 838.69 946.16 836.09 944.07 834.73 943.03 833.17 941.68 831.29 940.22 824.21 934.59 814.52 926.88 807.96 920.01 800.14 911.67 796.49 896.66 797.33 876.65V876.44H777.95C770.13 876.44 762.95 880.71 759.19 887.49L742.84 917.4C742.73 917.5 742.63 917.5 742.63 917.4L738.36 894.05C736.48 883.94 727.62 876.55 717.31 876.55H707.93V876.76C708.66 901.97 711.27 926.78 716.06 951.47 716.06 951.47 716.06 951.47 716.06 951.58L716.79 952.41H716.89 842.34Z" fill="#ffffff" opacity="1" stroke-width="4" stroke="#000000"></path><path d="M958.72 401.86C963.2 392.9 965.49 386.65 965.91 385.71 967.16 385.4 978.1 382.69 987.58 368.83 988.1 369.88 990.08 373 993.62 373 996.12 373 998.83 371.54 1001.86 368.52 1009.04 361.33 1009.98 356.23 1009.46 353.21 1009.15 351.02 1007.9 349.25 1006.02 348.2 1007.38 344.87 1007.48 341.95 1006.34 339.45 1005.5 337.58 1003.94 336.01 1001.96 335.08 1005.4 327.99 1000.29 323.2 999.04 322.16 1000.92 321.22 1002.58 320.28 1004.25 319.34 1014.36 314.03 1020.92 310.59 1020.92 306.01 1020.92 303.92 1019.57 301.42 1013.11 301.42 1006.13 301.42 994.87 304.55 983 309.76 970.49 315.18 958.72 322.37 948.2 331.01 938.92 338.93 927.57 349.98 913.81 364.35L913.92 366.44 956.43 402.59 958.72 401.86Z" fill="#a04a37" opacity="1" stroke-width="4" stroke="#000000"></path><path d="M690.43 532.21C701.99 514.91 714.5 505.95 715.43 505.22L812.85 504.49 813.17 503.66 824.83 449.06C827.96 451.46 857.24 474.07 880.89 474.07 881.62 474.07 882.35 474.07 883.08 473.96 898.5 473.03 928.82 462.5 958.62 401.97L958.72 401.86 913.81 364.35 913.71 364.46C897.56 381.44 883.81 397.17 882.14 399.05 843.38 348.2 811.71 340.6 796.29 340.6 795.87 340.6 795.45 340.6 795.14 340.6H794.52C794.41 340.6 794.31 340.6 794.2 340.6L791.81 328.72H730.02C730.02 328.72 731.38 335.49 731.69 336.95 729.4 337.26 710.22 340.6 696.99 355.19 691.16 361.44 670.84 369.67 662.82 390.3 657.92 402.59 665.32 423.53 662.09 435 659.48 444.27 657.5 453.02 656.36 460.63 651.25 493.13 669.59 521.16 690.22 532.1L690.43 532.21Z" fill="#ffd561" opacity="1" stroke-width="4" stroke="#000000"></path><path d="M715.43 505.22L715.33 503.66 705.01 444.48C696.58 447.5 695.01 458.13 693.35 469.48 691.99 478.34 690.64 487.4 686.16 494.59 677.93 507.83 668.24 511.99 668.24 511.99 674.28 520.64 681.99 527.73 690.12 532 690.12 532 715.23 505.32 715.43 505.22Z" fill="#ffd56100" opacity="0" stroke-width="4" stroke="#ffffff00"></path><path d="M659.17 435.2C660.73 435.2 661.98 435 661.98 435 661.98 435 664.28 427.6 664.9 425.83 671.15 408.74 673.13 401.76 684.07 377.8 692.2 381.75 704.18 383.63 713.25 383.53 725.44 383.42 737.52 381.13 747.73 374.57 756.38 369.15 767.32 358 770.13 335.08 771.18 326.64 770.97 318.09 769.72 309.76L769.61 309.65C769.61 309.65 741.69 297.05 747.84 278.61 749.4 273.81 753.57 271.31 760.03 271.31 769.51 271.31 781.07 276.63 781.07 276.63 781.18 276.52 792.74 262.66 784.1 248.6 783.89 248.29 784.2 247.87 784.51 247.97 787.22 248.6 789.83 249.02 792.64 249.02 805.87 249.02 808.27 238.28 808.27 238.28V238.18C803.27 228.39 797.02 222.55 787.53 219.01 780.66 216.3 773.36 214.94 766.07 215.05 752.01 215.05 738.56 219.74 729.19 228.07 715.12 240.78 717.83 264.33 720.96 280.69L721.06 281C715.85 280.27 710.64 279.86 705.43 279.86 687.3 279.86 655 284.44 642.19 314.97 635.62 330.8 633.75 354.35 648.34 373.31 645.83 374.15 627.39 380.82 624.48 395.3 622.39 404.57 624.79 414.26 630.83 421.56 637.71 429.68 649.06 435.2 659.17 435.2Z" fill="#231f20" opacity="1" stroke-width="4" stroke="#000000"></path><path d="M806.5 807.06C807.85 797.89 809.21 788.83 810.56 780.08 813.48 760.28 816.19 741.94 817.54 732.15 831.71 629.31 819.21 527.41 813.17 503.87V503.66L715.33 503.66H715.23C678.97 534.5 666.26 571.9 647.71 624.42 638.54 650.25 630.1 666.4 614.58 692.76 607.8 704.23 599.89 713.81 592.18 723.08 588.01 728.09 584.15 732.77 580.61 737.57 577.07 742.26 573.94 746.42 571.13 750.49L738.46 790.81C738.56 790.81 738.56 790.81 738.56 790.7L780.45 670.05C780.45 669.95 780.66 669.95 780.66 670.05L780.14 800.71C780.14 800.81 780.14 800.81 780.24 800.81L806.5 807.06Z" fill="#ff309a" opacity="1" stroke-width="4" stroke="#000000"></path><path d="M780.87 670.05L793.68 503.66" stroke="#000000" stroke-width="4" stroke-linecap="round" stroke-linejoin="round" opacity="1" fill="none"></path><path d="M848.28 968.77V968.56C848.38 962.41 846.51 956.47 842.96 951.47L842.86 951.37H715.96V951.58C717 957.31 718.46 963.04 720.12 968.56L848.28 968.77Z" fill="#8e8e8e" opacity="1" stroke-width="4" stroke="#000000"></path><path d="M621.97 968.66C624.48 963.04 625.2 956.68 623.85 950.53L623.23 949.91 508.2 899.89 507.36 900.3C506.11 906.03 505.07 911.98 504.34 917.92V918.03L621.97 968.66Z" fill="#8e8e8e" opacity="1" stroke-width="4" stroke="#000000"></path><path d="M623.43 950.32C623.64 950.43 623.85 950.22 623.75 950.01 623.02 946.99 621.97 943.97 620.52 941.16 619.89 939.91 619.06 938.34 618.22 936.68 614.16 928.86 607.91 917.09 604.26 907.81 600.62 898.33 601.55 886.35 607.18 871.04 607.18 870.93 607.18 870.83 607.08 870.72L588.53 862.49C581.65 859.47 573.63 860.41 567.48 864.78L542.16 882.91C541.96 883.02 541.75 882.91 541.75 882.7L545.29 861.87C546.96 852.07 541.75 842.38 532.58 838.42L526.43 835.71 526.33 835.92C518.41 856.76 512.05 878.22 507.26 900 507.26 900.1 507.26 900.21 507.36 900.31L623.43 950.32Z" fill="#ffffff" opacity="1" stroke-width="4" stroke="#000000"></path><path d="M799.41 902.71L780.03 906.77" stroke="#000000" stroke-width="4" stroke-linecap="round" stroke-linejoin="round" opacity="1" fill="none"></path><path d="M804.93 916.15L788.37 928.13" stroke="#000000" stroke-width="4" stroke-linecap="round" stroke-linejoin="round" opacity="1" fill="none"></path><path d="M742.52 917.3L747.52 951.37" stroke="#000000" stroke-width="4" stroke-linecap="round" stroke-linejoin="round" opacity="1" fill="none"></path><path d="M541.85 882.6L534.66 912.29" stroke="#000000" stroke-width="4" stroke-linecap="round" stroke-linejoin="round" opacity="1" fill="none"></path><path d="M602.07 894.9L586.24 896.35" stroke="#000000" stroke-width="4" stroke-linecap="round" stroke-linejoin="round" opacity="1" fill="none"></path><path d="M604.26 907.92L588.11 914.07" stroke="#000000" stroke-width="4" stroke-linecap="round" stroke-linejoin="round" opacity="1" fill="none"></path><path d="M705.01 444.48L715.33 503.66 813.17 503.66" stroke="#000000" stroke-width="4" stroke-linecap="round" stroke-linejoin="round" opacity="1" fill="none"></path><path d="M691.47 477.51L710.33 474.17" stroke="#000000" stroke-width="4" stroke-linecap="round" stroke-linejoin="round" opacity="1" fill="none"></path><path d="M882.14 399.05L892.56 412.91" stroke="#000000" stroke-width="4" stroke-linecap="round" stroke-linejoin="round" opacity="1" fill="none"></path><path d="M824.83 449.06L802.95 428.54" stroke="#000000" stroke-width="4" stroke-linecap="round" stroke-linejoin="round" opacity="1" fill="none"></path><path d="M999.04 322.15C990.5 322.77 981.64 324.96 973.83 328.5" stroke="#000000" stroke-width="4" stroke-linecap="round" stroke-linejoin="round" opacity="1" fill="none"></path><path d="M1001.96 335.08C991.85 335.7 979.04 339.97 979.04 339.97" stroke="#000000" stroke-width="4" stroke-linecap="round" stroke-linejoin="round" opacity="1" fill="none"></path><path d="M1006.02 348.2C1000.29 347.16 987.27 350.71 985.29 352.48" stroke="#000000" stroke-width="4" stroke-linecap="round" stroke-linejoin="round" opacity="1" fill="none"></path><path d="M790.66 321.64C785.45 319.45 782.64 318.41 782.64 318.41" stroke="#000000" stroke-width="4" stroke-linecap="round" stroke-linejoin="round" opacity="1" fill="none"></path><path d="M767.53 287.88L774.82 292.05" stroke="#000000" stroke-width="4" stroke-linecap="round" stroke-linejoin="round" opacity="1" fill="none"></path><path d="M684.07 377.8C673.65 373.63 672.72 369.15 672.72 369.15" stroke="#000000" stroke-width="4" stroke-linecap="round" stroke-linejoin="round" opacity="1" fill="none"></path><path d="M648.34 373.31C650.84 376.34 654.07 379.15 657.09 381.65" stroke="#000000" stroke-width="4" stroke-linecap="round" stroke-linejoin="round" opacity="1" fill="none"></path><path d="M721.06 280.99L724.81 297.25" stroke="#000000" stroke-width="4" stroke-linecap="round" stroke-linejoin="round" opacity="1" fill="none"></path><path d="M807.12 282.67C810.25 286.84 816.5 286.84 816.5 286.84" stroke="#000000" stroke-width="4" stroke-linecap="round" stroke-linejoin="round" opacity="1" fill="none"></path><path d="M806.6 269.12C805.16 269.12 804 267.96 804 266.52 804 265.08 805.16 263.91 806.6 263.91 808.04 263.91 809.21 265.08 809.21 266.52 809.21 267.96 808.04 269.12 806.6 269.12Z" fill="#231f20" opacity="1" stroke-width="4" stroke="#000000"></path><path d="M824.83 449.06L811.39 436.45C810.56 435.83 807.75 435.52 806.71 435.52 805.25 435.52 804 437.08 803.06 438.23 802.12 439.27 801.81 440.73 802.12 442.19 805.35 458.23 817.23 481.36 817.33 481.67L817.75 482.51 824.83 449.06Z" fill="#ffd56100" opacity="0" stroke-width="4" stroke="#ffffff00"></path></g><g><path d="M275.9 846.9C298.36 846.9 316.57 828.69 316.57 806.23 316.57 783.78 298.36 765.57 275.9 765.57 253.45 765.57 235.24 783.78 235.24 806.23 235.24 828.69 253.45 846.9 275.9 846.9Z" fill="#ffc432" opacity="1" stroke-width="4" stroke="#000000"></path></g><g><path d="M1365.12 606.78L1221.08 581.63 1277.71 716.17 1292.56 678.75 1335.82 713.3 1375.12 664.1 1331.86 629.55 1365.12 606.78Z" fill="#23211f" opacity="1" stroke-width="4" stroke="#000000"></path></g></svg>