<svg xmlns="http://www.w3.org/2000/svg" xmlns:xlink="http://www.w3.org/1999/xlink" version="1.1" width="256" height="256" viewBox="0 0 256 256" xml:space="preserve">

<defs>
</defs>
<g style="stroke: none; stroke-width: 0; stroke-dasharray: none; stroke-linecap: butt; stroke-linejoin: miter; stroke-miterlimit: 10; fill: none; fill-rule: nonzero; opacity: 1;" transform="translate(1.4065934065934016 1.4065934065934016) scale(2.81 2.81)" >
	<path d="M 45 0 L 45 0 C 20.147 0 0 20.147 0 45 v 0 c 0 24.853 20.147 45 45 45 h 0 c 24.853 0 45 -20.147 45 -45 v 0 C 90 20.147 69.853 0 45 0 z M 32.37 55.467 c 0.916 7.007 1.736 9.044 5.399 9.044 c 1.657 0 3 1.343 3 3 s -1.343 3 -3 3 c -9.483 0 -10.605 -8.586 -11.348 -14.267 C 25.534 49.464 24.755 48 22.034 48 c -1.657 0 -3 -1.343 -3 -3 c 0 -1.657 1.343 -3 3 -3 c 2.721 0 3.5 -1.464 4.386 -8.244 c 0.743 -5.681 1.865 -14.267 11.348 -14.267 c 1.657 0 3 1.343 3 3 s -1.343 3 -3 3 c -3.663 0 -4.483 2.037 -5.399 9.044 c -0.43 3.292 -0.996 7.617 -3.352 10.466 C 31.374 47.85 31.939 52.175 32.37 55.467 z M 67.966 48 c -2.721 0 -3.5 1.464 -4.386 8.244 c -0.743 5.681 -1.865 14.267 -11.349 14.267 c -1.657 0 -3 -1.343 -3 -3 s 1.343 -3 3 -3 c 3.663 0 4.483 -2.037 5.399 -9.044 c 0.43 -3.292 0.995 -7.617 3.352 -10.467 c -2.356 -2.849 -2.922 -7.174 -3.352 -10.466 c -0.916 -7.007 -1.736 -9.044 -5.399 -9.044 c -1.657 0 -3 -1.343 -3 -3 s 1.343 -3 3 -3 c 9.483 0 10.605 8.585 11.349 14.267 C 64.466 40.536 65.245 42 67.966 42 c 1.657 0 3 1.343 3 3 C 70.966 46.657 69.623 48 67.966 48 z" style="stroke: none; stroke-width: 1; stroke-dasharray: none; stroke-linecap: butt; stroke-linejoin: miter; stroke-miterlimit: 10; fill: rgb(0,0,0); fill-rule: nonzero; opacity: 1;" transform=" matrix(1 0 0 1 0 0) " stroke-linecap="round" />
</g>
</svg>